<svg width="23" height="23" viewBox="0 0 23 23" fill="none" xmlns="http://www.w3.org/2000/svg">
<g clip-path="url(#clip0_631_623)">
<mask id="mask0_631_623" style="mask-type:luminance" maskUnits="userSpaceOnUse" x="0" y="0" width="23" height="23">
<path d="M22.5176 0H0V22.5176H22.5176V0Z" fill="white"/>
</mask>
<g mask="url(#mask0_631_623)">
<path d="M20.4066 11.2588C20.4066 8.83266 19.4428 6.50588 17.7272 4.79035C16.0117 3.0748 13.685 2.11102 11.2588 2.11102C8.83266 2.11102 6.50588 3.0748 4.79035 4.79035C3.0748 6.50588 2.11102 8.83266 2.11102 11.2588C2.11102 13.685 3.0748 16.0117 4.79035 17.7272C6.50588 19.4428 8.83266 20.4066 11.2588 20.4066C13.685 20.4066 16.0117 19.4428 17.7272 17.7272C19.4428 16.0117 20.4066 13.685 20.4066 11.2588ZM0 11.2588C0 8.27278 1.18619 5.40906 3.29762 3.29762C5.40906 1.18619 8.27278 0 11.2588 0C14.2449 0 17.1085 1.18619 19.22 3.29762C21.3314 5.40906 22.5176 8.27278 22.5176 11.2588C22.5176 14.2449 21.3314 17.1085 19.22 19.22C17.1085 21.3314 14.2449 22.5176 11.2588 22.5176C8.27278 22.5176 5.40906 21.3314 3.29762 19.22C1.18619 17.1085 0 14.2449 0 11.2588ZM11.2588 7.03675C12.3786 7.03675 13.4525 7.48157 14.2443 8.27336C15.036 9.06514 15.4808 10.139 15.4808 11.2588C15.4808 12.3786 15.036 13.4525 14.2443 14.2443C13.4525 15.036 12.3786 15.4808 11.2588 15.4808C10.139 15.4808 9.06514 15.036 8.27336 14.2443C7.48157 13.4525 7.03675 12.3786 7.03675 11.2588C7.03675 10.139 7.48157 9.06514 8.27336 8.27336C9.06514 7.48157 10.139 7.03675 11.2588 7.03675Z" fill="#F2EFEB"/>
</g>
</g>
<defs>
<clipPath id="clip0_631_623">
<rect width="22.5176" height="22.5176" fill="white"/>
</clipPath>
</defs>
</svg>
