<svg xmlns="http://www.w3.org/2000/svg" viewBox="0 0 128 128" id="cow">
  <path d="M74.74,34.28a72.95092,72.95092,0,0,1-26.72-.01,38.96211,38.96211,0,0,1-9.95-5.37,19.87121,19.87121,0,0,1-6.41,8.73,2.00319,2.00319,0,0,1-2.55-3.09C32.21283,31.94788,34.89148,28.01776,35,23.79v-.07c.05-6.86-5.81-12.01-6.06-12.23a2.00019,2.00019,0,0,0-3.09009,2.4198A8.68184,8.68184,0,0,1,26.02,21.35,9.6063,9.6063,0,0,1,22,25.45,1.99644,1.99644,0,1,1,19.99,22a7.41477,7.41477,0,0,0,1.3-.95c-.35.03-.71.05-1.05.11a17.52106,17.52106,0,0,0-8.69,4.8A8.70122,8.70122,0,0,1,8.27,23.2a9.59894,9.59894,0,0,1-1.35-6.77,2.00058,2.00058,0,0,0-3.59-1.58c-.19.27-4.75,6.84-2.88,13.62a13.5181,13.5181,0,0,0,6.42,7.92,33.0754,33.0754,0,0,1-.2,4.77c-.85,4.38-4.39,8.37-4.42,8.4-.06.06-.11.13-.16.19A5.34242,5.34242,0,0,0,1.2,54.4c.89,3.09,4.52,4.92,5.48,5.36,3.24,2.15,7.37,2.04,11.69-.22a16.73865,16.73865,0,0,0,1.58844-.93311c.96783-.62555,1.85687-1.4549,3.07159-1.48688a1.22078,1.22078,0,0,1,.33.02c7.58,1.09,12.23-2.73,13.78-5.16a1.996,1.996,0,1,1,3.37,2.14c-2.02,3.18-7.89,8.17-17.18,7.05-.56519.40118-1.15619.75781-1.74,1.13l-.33.21C22,70.97,24.9,79.56,36.1,82.86a57.846,57.846,0,0,0,1.55,5.91c.19.65,1.2,4.11,1.58,5.29.7,2.24,2.98,9.36,2.56,12.8-1.61.97-4.91,3.4-5.03,7.07A1.99876,1.99876,0,0,0,38.75,116h5.32a.98412.98412,0,0,1-.02-.17c-.02-.12-.03-.25-.04-.37a3.84921,3.84921,0,0,1-.02-.48,9.35007,9.35007,0,0,1,.55-3.24,11.27884,11.27884,0,0,1,3.63-5.2c-.16-1.53-.49-3.03-.76-4.54-.6-3.43-1.89-6.69-2.81-10.03a46.30778,46.30778,0,0,1-1.46-8.22c-.04-.4-.07-.8-.1-1.2a16.07926,16.07926,0,0,1-1.46-1.14,15.11853,15.11853,0,0,1-3.93-5.33,10.03561,10.03561,0,0,1-.55-1.56,1.98411,1.98411,0,0,1,1.42-2.44A2.03021,2.03021,0,0,1,40.97,73.51a10.90778,10.90778,0,0,0,5.01984,6.17987C47.21661,80.416,47.006,82.14453,47.12,83.35v.04a52.78356,52.78356,0,0,0,2.43,11.15,63.89991,63.89991,0,0,1,2.55,11.15,11.38116,11.38116,0,0,1,.08,2.97,7.83339,7.83339,0,0,0-3.85,4.35,4.0138,4.0138,0,0,0-.13,2.87A2.04171,2.04171,0,0,0,49.92,117h11.4a2.01127,2.01127,0,0,0,1.76-1.04,9.14868,9.14868,0,0,0,.8-5.05c.05-.1.12-.27.18-.38a4.8642,4.8642,0,0,0,.61-2.59,28.07877,28.07877,0,0,1-.09-3.69,88.82035,88.82035,0,0,1,1.05-9.48A83.0479,83.0479,0,0,0,66.86,79.51c-.01-.59-.04-1.18005-.09-1.78a2.00063,2.00063,0,0,1,3.99-.3,54.00944,54.00944,0,0,1,.05,6.96,35.06093,35.06093,0,0,0,6.04.56c.49005,0,.98-.02,1.48-.04A16.81679,16.81679,0,0,0,81,87.44V90a2,2,0,0,0,4,0v-.33a15.647,15.647,0,0,0,2,.67V91a2,2,0,0,0,4,0v-.04c.27.01.54.04.81.04a16.8281,16.8281,0,0,0,2.48-.19c.12.42,3.75,10.31,3.02,15.74a7.593,7.593,0,0,0-4.22,6.38,2.07188,2.07188,0,0,0,.56,1.46,2.01319,2.01319,0,0,0,1.44.61h4.37a5.89069,5.89069,0,0,1-.35-2.21,10.175,10.175,0,0,1,.23-1.79s.09-.45.28-1.12a10.88553,10.88553,0,0,1,1.69-3.23,28.45219,28.45219,0,0,0-.69-7.31c-.66-3.67-2.17-8.6-2.19-8.67-.23-.21-.47-.43-.71-.67a38.92941,38.92941,0,0,1-3.03-3.3,26.13748,26.13748,0,0,1-1.84-2.46c-.06995-.11-.15-.21-.22-.32q.255,1.545.6,3a13.36825,13.36825,0,0,1-1.42.08,13.85821,13.85821,0,0,1-8.48-2.82,23.32241,23.32241,0,0,0,7.55-3.29A24.75365,24.75365,0,0,1,88.7,63.76a2.00123,2.00123,0,0,1,3.9.9,20.57362,20.57362,0,0,0,.6,11.49994A30.22641,30.22641,0,0,0,103.77,89.92c.28.98.59,1.95.89,2.92a60.86722,60.86722,0,0,1,1.98,7.71,23.31433,23.31433,0,0,1,.62,6.17,7.4001,7.4001,0,0,0-4.15,6.21,1.99874,1.99874,0,0,0,2,2.07h11.23A2.0111,2.0111,0,0,0,118.1,113.96a9.04222,9.04222,0,0,0,.8-4.99c.04-.11.12-.26.17-.37a4.91413,4.91413,0,0,0,.61-2.58,101.26424,101.26424,0,0,1,2.13-33.73c.07-.32.12-.63.19-.95-.04,1.37-.13,2.74-.23,4.19-.29,3.95-.59,8.04.48,12.13a28.174,28.174,0,0,0,1.95,5.2,2.01115,2.01115,0,0,0,2.66.94,1.98534,1.98534,0,0,0,.94-2.66A25.34915,25.34915,0,0,1,126.12,86.65c-1.34406-5.15845-.17358-10.53009-.1-15.76.14557-10.34351-2.31445-20.28754-8.24988-28.81982-3.60883-5.18774-8.522-9.761-15.00012-10.73016C93.29578,29.92609,83.98315,32.57861,74.74,34.28ZM19.93,35.86a3.16882,3.16882,0,0,1-1.24,1.43,3.82432,3.82432,0,0,1-1.85.69c-.26.02-.76.11-.83-.25a.79121.79121,0,0,1,.14-.51c.95-1.7,1.05-2.65,1.29-2.87a1.241,1.241,0,0,1,1.49-.18C19.62,34.51,20.2,35.03,19.93,35.86Zm91.06,21.18A1.99551,1.99551,0,0,1,109,59h-.05A1.99142,1.99142,0,0,1,107,56.96c.2-9.54-6.37-11.97-6.65-12.06995a2.00188,2.00188,0,0,1,1.29-3.79C102.03,41.24,111.26,44.48,110.99,57.04Z"></path>
</svg>
