<?xml version="1.0" encoding="UTF-8"?>
<svg id="Layer_3" data-name="Layer 3" xmlns="http://www.w3.org/2000/svg" viewBox="0 0 277.26 186.52">
  <defs>
    <style>
      .cls-1 {
        stroke: #fcfcfb;
      }

      .cls-1, .cls-2, .cls-3 {
        stroke-miterlimit: 10;
      }

      .cls-1, .cls-3 {
        fill: none;
        stroke-linecap: round;
        stroke-width: 11.69px;
      }

      .cls-2 {
        fill: #fff;
        stroke-width: 2.17px;
      }

      .cls-2, .cls-3 {
        stroke: #fff;
      }
    </style>
  </defs>
  <g id="Layer_1" data-name="Layer 1">
    <g>
      <path class="cls-1" d="M205.09,94.75c45.94-12.89,66.33,19.27,66.33,19.27"/>
      <path class="cls-1" d="M72.17,94.75C26.23,81.86,5.84,114.03,5.84,114.03"/>
      <path class="cls-3" d="M110.43,93.85c5.57-.49,11.45-.76,17.64-.76,5.46,0,10.67.16,15.65.45"/>
      <polyline class="cls-2" points="206.32 93.85 193.99 170.66 193.56 170.66 178.56 113.67 167.55 113.67 154.22 170.93 153.87 170.93 142.53 96.78 131.48 96.76 146.18 185.43 158.51 185.43 171.22 131.13 171.48 131.13 185.78 185.43 197.66 185.43 213.23 93.85"/>
      <path class="cls-2" d="M131.88,9.79l5.26-1.09V1.09h-21.57l-15.86,63.34-.36,1.09L84.38,1.09h-22.12v7.61l4.62,1.09c1.21.27,2.01.84,2.4,1.7.39.86.53,2.38.41,4.55l-2.54,64.84c-.06,1.99-.51,9.93-.52,11.01h7.5c-.07-1.06.3-9.06.36-10.87l2.54-64.16v-.95l15.95,64.97h9.06l16.41-64.84.09.95,2.54,63.89c.12,2.36-.02,3.97-.41,4.83-.39.86-1.13,1.43-2.22,1.7l-5.35,1.22v.74c5.28-.65,10.62-1,15.98-1,1.75,0,3.48.02,5.2.07-.69-.61-1.31-1.45-1.74-2.6-.33-.89-.62-2.47-.68-4.83l-2.63-64.57c-.06-2.63.1-4.35.5-5.17.39-.82,1.1-1.31,2.13-1.5Z"/>
    </g>
  </g>
</svg>