<?xml version="1.0" encoding="UTF-8"?>
<svg id="Layer_2" data-name="Layer 2" xmlns="http://www.w3.org/2000/svg" viewBox="0 0 360.33 144.47">
  <defs>
    <style>
      .cls-1 {
        fill-rule: evenodd;
      }

      .cls-1, .cls-2, .cls-3, .cls-4, .cls-5, .cls-6 {
        fill: #fff;
      }

      .cls-2 {
        letter-spacing: 0em;
      }

      .cls-2, .cls-3, .cls-7, .cls-4, .cls-5, .cls-6 {
        isolation: isolate;
      }

      .cls-2, .cls-3, .cls-4, .cls-5, .cls-6 {
        font-family: LiterataRoman-SemiBold, Literata;
        font-variation-settings: 'wght' 600, 'opsz' 12;
        font-weight: 600;
      }

      .cls-2, .cls-3, .cls-6 {
        font-size: 45.64px;
      }

      .cls-3 {
        letter-spacing: 0em;
      }

      .cls-8, .cls-9, .cls-10 {
        fill: #fffefd;
      }

      .cls-9 {
        stroke: #fdfefe;
      }

      .cls-9, .cls-10 {
        stroke-width: .13px;
      }

      .cls-9, .cls-10, .cls-11 {
        stroke-miterlimit: 10;
      }

      .cls-10, .cls-11 {
        stroke: #fff;
      }

      .cls-11 {
        fill: none;
        stroke-linecap: round;
        stroke-width: 5.32px;
      }

      .cls-4 {
        letter-spacing: .01em;
      }

      .cls-4, .cls-5 {
        font-size: 66.94px;
      }

      .cls-12 {
        letter-spacing: 0em;
      }

      .cls-5 {
        letter-spacing: .02em;
      }

      .cls-13 {
        letter-spacing: .02em;
      }
    </style>
  </defs>
  <g id="Layer_2-2" data-name="Layer 2">
    <g id="Layer_1-2" data-name="Layer 1-2">
      <g>
        <g>
          <g class="cls-7">
            <text class="cls-6" transform="translate(112.71 126.53)"><tspan class="cls-12" x="0" y="0">agyu</tspan><tspan class="cls-13" x="109.58" y="0" xml:space="preserve">   </tspan></text>
          </g>
          <g class="cls-7">
            <text class="cls-4" transform="translate(50.77 126.53)"><tspan x="0" y="0">W</tspan></text>
          </g>
        </g>
        <line class="cls-11" x1="2.66" y1="71.39" x2="357.67" y2="71.39"/>
        <g>
          <g class="cls-7">
            <text class="cls-5" transform="translate(3.32 62.41)"><tspan x="0" y="0">M</tspan></text>
          </g>
          <g class="cls-7">
            <text class="cls-3" transform="translate(69.21 62.41)"><tspan x="0" y="0">i</tspan></text>
            <text class="cls-6" transform="translate(84.77 62.41)"><tspan x="0" y="0">t</tspan></text>
            <text class="cls-6" transform="translate(104.03 62.41)"><tspan x="0" y="0">s</tspan></text>
            <text class="cls-2" transform="translate(126.26 62.41)"><tspan x="0" y="0">urin</tspan></text>
          </g>
        </g>
        <g>
          <path class="cls-8" d="M317.9,59.76c.09-.14.17-.3.23-.45-.08.15-.16.3-.23.45Z"/>
          <path class="cls-8" d="M248.29,49.07c1.12-3.81.95-7.89.49-11.85s-1.25-8.07-1.24-12.14.89-8.29,3.39-11.51,7.03-5.26,10.99-3.97c-.83.37-1.67.74-2.5,1.12-3.36,1.5-6.94,3.18-8.8,6.36-1.67,2.86-1.63,6.38-1.42,9.68.32,4.99.9,9.96,1.75,14.89.24,1.37.49,2.76.46,4.15s-.38,2.82-1.23,3.92l-1.95-.4c.03-.09.05-.18.08-.26h-.02Z"/>
          <path class="cls-8" d="M247.18,61.81c-.31-2.9-.62-5.8-.93-8.69-.1-.93-.19-1.91.18-2.76.51-1.16,1.91-1.82,3.14-1.55.18,0,.36,0,.54,0,.86,2.24.22,4.76-.67,6.98s-2.02,4.42-2.18,6.81c-.03-.26-.06-.52-.08-.78Z"/>
          <path class="cls-8" d="M253.76,30.38c-.94,1.37-.47,3.22.13,4.77s1.28,3.25.7,4.8c-.55,1.45-2.07,2.3-2.88,3.63-.63,1.04-.78,2.29-.91,3.5-.59,5.35-1.18,10.71-1.76,16.06-.04.36-.08.73.03,1.07.11.34.41.65.77.64s.67-.44.48-.74c-.55.93-.64,2.12-.26,3.13,1.78,0,3.55-.01,5.33-.02-2.57-3.47-3.36-8.19-2.04-12.3.98-3.08,3.04-5.75,3.92-8.86,1.29-4.53-.04-9.34-1.37-13.86-.18-.6-.38-1.25-.87-1.64s-1.36-.37-1.63.2"/>
          <path class="cls-8" d="M341.67,7.26c-2.22,0-2.7.2-4.92.19-1.18,0-2.41,0-3.47.5-1.55.74-2.46,2.4-2.94,4.05-.4,1.38-.57,2.82-.73,4.25-.18,1.55-.35,3.16.14,4.64.6,1.8,2.12,3.17,2.71,4.97.54,1.63.26,3.4.36,5.11.04.65.17,1.37.68,1.77.4.31.94.36,1.44.4,1.26.09,2.53.19,3.79.28.76.06,1.58.11,2.25-.25,1.38-.73,1.47-2.63,1.62-4.18.31-3.07,1.59-5.95,2.5-8.91s1.31-6.17.27-9.08c-.69-1.93-2.08-3.83-4.72-3.73"/>
          <path class="cls-8" d="M346.65,14.17c.59.1,1.18-.13,1.77-.27,1.56-.36,3.29,0,4.55.93.23.17.46.38.52.66.08.38-.19.74-.47,1.02-.78.79-1.75,1.43-2.82,1.84-.54.21-1.13.36-1.7.24-.39-.08-.74-.29-1.13-.39-.57-.15-1.38-.04-1.98.26-.21.11-.47-.05-.45-.27.05-.56,0-1.12-.02-1.69-.01-.66.24-1.31.73-1.79s.85-.52,1.54-.55"/>
          <path class="cls-8" d="M329.43,12.45c-.67.05-1.3-.22-1.94-.4-1.7-.48-3.66-.26-5.13.57-.27.15-.55.35-.63.61-.12.37.15.75.44,1.06.8.85,1.83,1.56,2.99,2.06.58.25,1.23.45,1.87.38.44-.05.85-.23,1.29-.3.65-.11,1.54.07,2.18.42.23.12.52-.01.52-.23,0-.56.1-1.12.16-1.68.07-.66-.16-1.32-.67-1.84s-.91-.59-1.67-.67"/>
          <path class="cls-9" d="M353.2,5.71c0-.53-.02-1.07-.05-1.6-.02-.48-.07-1-.41-1.33-.34,1.84-1.05,3.64-2.23,5.08s-3.96,2.22-5.78,2.53c-.14.98.57,2.11.94,3.02,1.64-.02,3.13-.94,4.42-1.96,1.07-.85,2.11-1.82,2.64-3.07.35-.84.46-1.75.47-2.67h0Z"/>
          <path class="cls-10" d="M322.7,3.31c.04-.59.11-1.17.18-1.75.07-.52.16-1.09.56-1.43.22,2.04.85,4.07,2.02,5.75s4.27,2.86,6.23,3.35c.07,1.08-.91,2.16-1.39,3.13-1.8-.15-3.35-1.29-4.68-2.51-1.11-1.01-2.16-2.16-2.64-3.58-.32-.95-.36-1.95-.3-2.96h.02Z"/>
          <path class="cls-8" d="M333.16,33.08c-.72-.57-.86-1.52-.89-2.18-.03-.56-.03-1.12-.02-1.67.01-1.17.02-2.27-.32-3.3-.27-.83-.77-1.57-1.29-2.36-.54-.81-1.1-1.65-1.42-2.61-.44-1.31-.39-2.68-.27-3.96-.41-.16-.88-.24-1.22-.17-.14.03-.3.08-.46.13-.22.07-.46.15-.73.19-.78.1-1.51-.19-1.99-.42-1.1-.53-2.09-1.28-2.86-2.19-.18-.21-.72-.85-.5-1.58.14-.46.5-.74.81-.93,1.31-.83,3.02-1.11,4.58-.78-.48-.36-.92-.73-1.31-1.09-.77-.71-1.59-1.53-2.19-2.53-1.39-.15-2.82-.16-4.29-.12-5.41.16-10.7,1.47-16.03,2.39-9.85,1.7-19.98,1.79-29.86.26-4.72-1.18-9.83-.76-14.3,1.18-1.97.86-3.85,2.04-5.15,3.74-2.07,2.72-2.37,6.46-1.61,9.79.76,3.33,2.47,6.35,4.16,9.32l-.77-1.34c2.13,3.86,2.54,5.78,1.06,9.84-.34.79-.7,1.58-.97,2.38-.85,2.58-.67,5.39-.14,8.05.54,2.66.73,4.9,1.25,7.56.32,1.66,1.18,3.76.65,5.37-.23.7-.58,1.51-.15,2.11.35.48,1.03.54,1.62.56l3.83.11c.52.02.82-.6.48-1-1.9-2.27-2.53-5.51-2.95-8.45-.48-3.4-.46-6.51,1.2-9.52.54-.98,1.19-1.91,1.79-2.86.38-.61.55-.92.62-1.06,1.22-2.35.57-3.48,1.62-4.52.76-.76,2.14,0,3.31-3.49.17-.5.86-1.04,1.62-1.21.14-.03.29-.04.43-.04,1.14-.95,2.11-2.06,2.84-3.26.94-1.54,1.49-3.24,1.6-4.91.1-1.67-.24-3.4-.99-5.01-.75-1.62-1.91-3.11-3.36-4.33-.18-.15-.2-.42-.05-.6.15-.18.42-.2.6-.05,1.54,1.3,2.78,2.89,3.58,4.62.81,1.74,1.17,3.61,1.06,5.41-.11,1.8-.7,3.64-1.72,5.3-.68,1.12-1.56,2.17-2.58,3.09.42.2.82.49,1.2.76,2.55,1.83,11.45,5.43,18.06,5.64,5.76.18,9.79-2.08,14.02-1.61l-.31-.32c-2.04-2.08-3.33-5.22-3.47-8.4-.13-3.18.9-6.45,2.75-8.75.11-.13.3-.15.43-.05.13.11.15.3.05.43-1.76,2.19-2.74,5.31-2.62,8.34.11,2.77,1.15,5.5,2.8,7.45.04-.03.66,1.32.66,1.32.92.13,1.84.39,2.8.84.31.15.59.29,1.59.77,5.19,2.46,7.82,3.69,9.58,3.53,2.02-.18,3.48-1.2,5.56-2.65,1.77-1.24,2.42-2.17,2.8-2.94.44-.91.58-1.75.62-2.31,1.16-.66,2.85-1.82,4.22-3.77.25-.36.67-.99,1.08-2.02-.06-.04-.13-.08-.19-.13h.05Z"/>
          <path class="cls-8" d="M302.41,33.49c1.67,4.43,5.06,12.62,6.73,17.04,1.91,5.06,3.84,10.62,2.08,15.73l1.59-.28-.28,1.65c2.29.49,4.64.74,6.99.72.43,0,.64-.52.33-.82-1.92-1.87-3.73-3.9-4.61-6.4-1.39-3.95-.21-8.29.87-12.34s2.03-8.5.25-12.3c-.94-2-2.56-3.6-4.31-4.94-1.82-1.39-3.99-2.57-6.27-2.42s-3.64,2.08-3.36,4.35"/>
          <path class="cls-8" d="M323.06,66.3c-1.92-1.87-3.73-3.9-4.61-6.4-1.39-3.95-.21-8.29.87-12.34s2.03-8.5.25-12.3c-.94-2-2.56-3.6-4.31-4.94-1.82-1.39-3.99-2.57-6.27-2.42-.76.05-1.51.3-2.17.69,1.74.16,3.57,1,5.58,2.52,2.16,1.65,3.63,3.33,4.48,5.15,1.86,3.98.87,8.63-.22,12.68l-.03.1c-1.07,4.01-2.18,8.15-.86,11.91.84,2.4,2.59,4.35,4.37,6.09.86.06,1.72.09,2.58.09.43,0,.64-.52.33-.82h.01Z"/>
        </g>
        <path class="cls-1" d="M266.14,63.91c.28.23.6.51.92.83-.1,0-.21.03-.3.05-.2-.33-.41-.63-.62-.88h0ZM313.4,69.97h-.43c.16-.34.41-.74.77-1.07-.13.35-.25.72-.35,1.07h.01ZM317.87,67.74h0c.22-.1.46-.18.69-.23-.12.18-.24.38-.35.58-.11-.13-.22-.24-.33-.35h-.01ZM318.27,66.92h0c-.32.05-.68.19-1.02.4-.11-.05-.22-.08-.32-.1-.45-.09-.83.12-1.04.24.13-.21.28-.42.44-.61.31-.36.68-.68,1.01-.94.27.25.63.6.94,1.01h-.01ZM318.48,70.02h0c-.07.18-.12.34-.14.46-.02.11-.01.2.01.26h-.45c.09-.11.16-.23.2-.37.06-.21.07-.49.19-.94.01.04.03.07.04.1.07.19.11.35.14.49h0ZM319.18,68.76h0c-.1.14-.2.29-.29.43-.09-.2-.2-.39-.31-.58.09-.2.19-.41.31-.62.12.26.21.52.29.77h0ZM319.66,70.74h-.35c.02-.06.02-.14,0-.26v-.05c.04-.12.07-.28.13-.48.02.17.03.3.06.41.03.14.09.26.16.37h0ZM328.21,70.74h0c.05-.19.11-.45.26-.78.16-.33.41-.73.77-1.06-.24.63-.43,1.31-.54,1.84h-.49ZM330.27,68.32h0c-.43.9-.71,1.83-.74,2.25v.18h-.21c.03-.22.05-.52.15-.96.08-.37.22-.84.42-1.32.12-.06.25-.11.38-.15h0ZM319.86,67.85h0s-.03-.02-.04-.03c-.19-.14-.41-.24-.62-.3l-.02.03c.11.22.22.45.32.69.01.03.03.07.04.1.13-.14.26-.26.4-.38-.02-.03-.04-.07-.07-.1h-.01ZM318.38,66.29h0c.2.16.42.36.64.58l-.03.04s-.07.01-.1.02c-.03,0-.05,0-.08-.01-.14-.23-.29-.44-.44-.62h0ZM320.19,66.45h0c.28.25.58.54.84.87-.19.06-.38.15-.57.26-.15-.15-.31-.28-.46-.39-.09-.11-.18-.22-.27-.32.15-.15.3-.29.46-.42h0ZM323.45,69.87h0c-.08.27-.15.53-.21.78-.15-.56-.42-1.29-.75-1.96-.04-.08-.07-.15-.11-.22.05.03.09.06.13.09.44.32.76.87.94,1.32h0ZM324.47,69.7h0c-.07.18-.13.36-.18.53-.07-.19-.15-.39-.24-.59.05-.22.12-.46.19-.71.09.27.17.52.22.73v.04h0ZM325.4,67.76h0c-.07-.14-.14-.27-.22-.4-.06-.1-.12-.2-.19-.3-.04.08-.08.17-.13.25-.15.32-.29.64-.41.95.06.13.12.26.18.4.04.1.08.2.12.3.06-.13.12-.25.18-.38.14-.29.3-.57.46-.83h.01ZM326.08,66.81h0c-.14.17-.28.35-.42.55-.14-.27-.29-.51-.44-.72.14-.25.29-.5.44-.73.14.28.28.59.42.91h0ZM326.2,70.61h0s-.03.09-.04.14h-.88c-.05-.23-.11-.5-.19-.79.02-.12.06-.25.1-.4.1-.34.26-.76.48-1.2.17.44.29.86.37,1.2.11.5.13.81.16,1.05h0ZM326.8,69.03h0c-.12-.52-.29-1.1-.5-1.69h-.01c-.13.18-.25.36-.36.54.11.23.21.46.3.71.12.32.24.66.33.98.07-.18.15-.36.24-.54h0ZM326.99,70.74h0c.02-.09.04-.19.06-.32.01.12.02.22.03.32h-.09ZM327.86,69.47h0c.08-.26.17-.53.27-.78.26-.67.56-1.28.88-1.76-.23.2-.45.41-.66.65-.51.6-.86,1.33-1.06,1.88.06.25.12.5.17.74.11-.23.24-.48.4-.73h0ZM302.06,67.5h-.01l.03-.03v.03h-.02ZM320.96,70.74h-.76c-.04-.36-.18-.96-.38-1.6.12-.19.28-.39.46-.58.23.45.39.88.49,1.22.13.44.16.73.19.96h0ZM322.06,70.74h.31s-.05-.05-.07-.07c-.17-.18-.29-.35-.34-.59-.06-.25-.05-.57-.19-1.15-.06-.23-.13-.5-.24-.78-.17-.03-.32-.05-.43-.07-.06,0-.1-.01-.14-.02-.02.01-.04.02-.07.03l.02.03c.46.68.8,1.61.86,2.06.02.2-.01.31-.07.36.02.07.04.13.06.19h.3ZM297.57,67.85h0c-.12-.33-.27-.68-.43-1.02.02-.03.03-.07.05-.1.15.39.28.78.38,1.12h0ZM299.62,69.15h0s.02.04.02.06v.02l-.02-.08h0ZM298.62,67.9h0c-.05-.15-.1-.29-.16-.43.09.08.17.16.24.24-.03.06-.06.13-.09.19h.01ZM311.31,67.8h0c-.09-.26-.18-.51-.27-.74.17-.19.35-.37.53-.54.07-.04.13-.08.2-.12.03-.01.05-.03.08-.04-.03.07-.06.13-.08.2-.17.41-.32.83-.46,1.25h0ZM310.93,69.16h0c.05-.24.12-.51.2-.79-.09-.34-.21-.68-.34-1.03h-.01c-.13.18-.25.36-.36.54.11.23.21.46.3.71.07.19.14.38.2.57h0ZM310.03,68.65h0c.04-.1.09-.19.14-.29.17.44.29.86.37,1.2.04.15.06.29.08.41h-.86c.05-.31.09-.7.26-1.3v-.02h0ZM313.28,63.91h0c-.21.25-.41.55-.62.88-.09-.03-.19-.04-.3-.05.32-.31.64-.59.92-.83h0ZM307.29,67.99h0c-.13-.1-.26-.17-.39-.23.2-.29.44-.56.72-.77.03.03.05.06.08.09-.01.03-.03.06-.04.09-.13.27-.26.55-.37.82h0ZM307.01,68.72h0l-.02-.03c-.04-.08-.08-.15-.11-.22.05.03.09.06.13.09.02.01.03.02.05.03-.02.04-.03.09-.05.13h0ZM304,65.36h.01s.07.07.11.11c-.03.05-.06.09-.09.14-.06-.02-.11-.03-.16-.04.04-.07.08-.14.12-.21h.01ZM304.35,65.12h0s-.04.05-.05.08c-.06-.02-.11-.03-.17-.04.04-.07.09-.14.13-.2.03.06.06.11.08.17h.01ZM304.27,66.9h0c.06-.15.13-.3.2-.46.06,0,.12-.02.18-.03.1.09.19.18.29.27-.07.15-.13.3-.2.46-.02.06-.05.12-.07.18-.06-.05-.12-.09-.18-.13-.07-.09-.14-.18-.21-.26v-.03h-.01ZM302.78,64.61h0c.07-.17.14-.33.22-.49.17-.2.34-.38.49-.53.12.2.25.4.37.61-.22.26-.44.58-.66.94-.14-.19-.27-.36-.41-.53h0ZM303.1,67.41h0l.02.04c-.05.13-.1.26-.15.39.04-.14.08-.28.13-.43h0ZM303.39,66.82h0s-.03.07-.05.11h-.01s-.03-.04-.04-.06c.02-.05.04-.1.06-.15.02.03.03.07.05.1h0ZM303.87,69.97h-.17c-.05-.15-.11-.32-.18-.5.09-.12.16-.25.2-.41,0-.03.02-.06.02-.09.03.09.05.18.07.26.05.21.08.39.11.54-.02.07-.03.14-.04.21h0ZM302.18,66.23h.01l-.02.02v-.02h0ZM302.81,65.8h0c-.18-.06-.33-.09-.45-.11.04-.12.08-.23.13-.35v.02c.13.14.23.29.33.44h0ZM299.82,65.82h0c-.09.12-.17.24-.25.37-.25-.52-.51-1-.77-1.42.31.27.62.57.89.89.05.05.09.11.13.16h0ZM300.61,67.03h0s-.04.09-.05.14c-.03.08-.06.16-.09.24-.05.03-.1.06-.14.08-.19.11-.2.12.05.16-.04.11-.07.22-.11.32-.09-.27-.18-.53-.28-.8-.02-.05-.04-.09-.05-.14.1-.19.21-.39.34-.58.12.19.23.39.34.58h-.01ZM300.89,69.21h0s.02-.04.02-.06l-.02.08v-.02h0ZM292.85,65.87h0s-.04.03-.05.05c-.08-.04-.16-.07-.24-.1.05,0,.09-.01.13-.02.05.02.11.04.16.07h0ZM295.27,65.78h0s-.04.09-.06.13c-.02-.04-.04-.08-.06-.11.04,0,.08-.01.12-.02h0ZM296.27,66.9h0s-.05.09-.07.13c-.08.17-.17.34-.24.52-.05-.14-.11-.28-.16-.42-.08-.19-.16-.37-.24-.55.03-.07.05-.14.08-.21.13.02.28.03.44.06.07.16.14.31.2.46h-.01ZM292.92,67h0c.59.44,1.01,1.18,1.25,1.78-.11.36-.2.72-.28,1.06-.21-.77-.57-1.76-1.02-2.68l-.03-.06s.05-.07.08-.11h0ZM294.58,67.53h0c-.24-.4-.56-.83-.98-1.18-.02.01-.04.03-.06.04h-.02c.31.28.61.62.88,1.01.05.07.1.15.14.22.01-.03.02-.07.04-.1h0ZM295.02,68.55h0s-.03-.06-.04-.09v-.02s.03.07.04.11h0ZM296.42,68.86h0c.03-.15.07-.32.13-.5.03-.1.06-.2.09-.3.1.45.12.76.19,1,.1.34.3.56.6.81.04.03.08.07.13.1h-.88c-.04-.21-.1-.44-.16-.69v-.06c-.02-.1-.05-.22-.09-.36h-.01ZM294.76,65.16h0c-.31-.47-.63-.87-.93-1.15-.18-.17-.36-.3-.53-.4.09-.09.18-.17.26-.24.46.35.96.79,1.38,1.28.19.22.36.46.52.69l-.03.07c-.18-.1-.4-.21-.67-.26h0ZM292.3,64.76h.01c.44.07.92.26,1.39.54.11-.05.21-.09.32-.11-.37-.47-.77-.87-1.1-1.17-.21.22-.42.47-.62.74h0ZM290.66,69.24h0c.06.3.09.54.12.73h-.37c.1-.15.17-.31.22-.51.02-.07.03-.14.04-.23h-.01ZM292.15,63.91h0c-.2.24-.4.53-.6.84-.03,0-.07,0-.1.02h0c-.03-.05-.06-.1-.09-.16.28-.26.55-.5.79-.7h0ZM289.71,65.3h0c-.08-.06-.16-.12-.24-.17-.12-.15-.24-.3-.36-.44.19-.2.4-.39.6-.56.2.17.41.36.6.56-.12.14-.24.28-.36.44-.08.05-.16.11-.24.17h0ZM285.24,68.78h0c.24-.6.66-1.34,1.25-1.78.03.04.05.07.08.11l-.03.06c-.45.92-.81,1.91-1.02,2.68-.08-.34-.18-.7-.28-1.06h0ZM284.4,68.55h0s.02-.07.03-.11v.02s-.02.06-.03.09h0ZM283.22,65.12h0c-.13.19-.26.39-.38.6h-.17c.06-.12.13-.24.2-.36.08-.14.17-.27.26-.41.03.06.06.11.08.17h.01ZM283.15,66.9h0c.06-.15.13-.3.2-.46.16-.02.3-.04.44-.06.03.07.05.14.08.21-.08.18-.16.36-.24.55-.06.14-.11.28-.16.42-.08-.17-.16-.35-.24-.52-.02-.05-.05-.09-.07-.13h-.01ZM281.66,64.61h0c.14.17.28.34.41.53.22-.36.44-.68.66-.94-.12-.21-.24-.41-.37-.61-.15.15-.31.33-.49.53-.07.16-.14.32-.22.49h0ZM282.27,66.82h0c-.16.34-.3.69-.43,1.02.1-.35.22-.73.38-1.12.02.03.03.07.05.1h0ZM282.75,69.97h-.88s.09-.07.13-.1c.3-.25.5-.47.6-.81.07-.25.09-.55.19-1,.03.1.07.2.09.3.05.19.1.35.13.5-.04.13-.07.26-.09.36v.06c-.06.25-.12.48-.16.69h-.01ZM281.69,65.8h0c-.03.06-.06.11-.09.17-.18.08-.37.17-.55.28.09-.3.2-.61.31-.91v.02c.13.14.23.29.33.44h0ZM280.71,67.71h0c.08-.08.16-.17.24-.24-.05.14-.11.29-.16.43-.03-.06-.06-.13-.09-.19h.01ZM288.76,69.24h0c.01.08.02.16.04.23.04.2.12.36.22.51h-.37c.03-.2.06-.43.12-.73h-.01ZM289.71,69.67h0c-.08-.49-.25-1.17-.48-1.88.13-.21.29-.43.48-.63.18.2.34.42.48.63-.23.71-.39,1.39-.48,1.88h0ZM265.03,68.47h0c.2.48.34.95.42,1.32.01.06.03.13.04.18h-.21c-.13-.46-.34-1.06-.62-1.65.13.04.26.09.38.15h-.01ZM266.02,69.97h0c-.1-.35-.21-.71-.35-1.07.36.33.62.73.77,1.06h-.43.01ZM276.03,66.82h0s.03-.07.05-.1c.02.05.04.1.06.15-.01.02-.03.04-.04.07h-.01s-.03-.08-.05-.12h0ZM272.41,68.72h0s-.03-.09-.05-.13c.01-.01.03-.02.05-.03.04-.03.09-.06.13-.09-.04.07-.08.15-.11.22l-.02.03h0ZM271.47,69.87h0s.06.07.1.1h-.08s-.02-.07-.03-.1h0ZM269.41,66.15h0c-.06-.08-.12-.15-.17-.22l.02-.04c.05.08.1.17.16.25h0ZM269.39,68.65h0v.02c.18.6.22,1,.27,1.3h-.86c.02-.12.05-.26.08-.41.08-.34.2-.76.37-1.2.05.1.1.19.14.29h0ZM268.49,69.16h0c.06-.19.13-.38.2-.57.09-.24.19-.48.3-.71-.11-.18-.23-.35-.36-.52h-.01c-.13.33-.24.68-.34,1.02.08.28.14.54.2.79h0ZM267.51,69.97h-.1c.02-.08.03-.19.01-.35-.04-.36-.22-.96-.5-1.58.32.48.56.99.71,1.41-.04.17-.08.34-.12.51h0ZM261.55,67.74h0c-.11.1-.23.22-.33.35-.11-.2-.23-.39-.35-.58.23.05.47.13.69.23h-.01ZM263.28,70.18h0c-.06.14-.11.33-.15.56h-.92c-.06-.45-.32-1.27-.7-2.07.15-.21.33-.41.53-.56.01-.01.03-.02.04-.03.41.34.7.79.87,1.15.21.43.24.74.31.95h.02ZM262.79,67.78h0c.12.11.23.23.34.35.51.58.91,1.35,1.05,1.84h.26c-.05-.23-.07-.54-.22-1.04-.07-.23-.17-.5-.3-.78-.22-.03-.41-.05-.55-.07-.27-.03-.32-.08-.15-.16.11-.05.28-.13.48-.19-.02-.03-.04-.07-.06-.1-.04,0-.1.01-.17.02-.16.02-.42.05-.69.13h0ZM261.15,66.92h0c.31-.42.66-.76.94-1.01.34.26.7.58,1.01.94.17.19.31.4.45.61-.21-.13-.59-.33-1.04-.24-.1.02-.21.05-.32.1-.35-.21-.7-.35-1.02-.4h-.02ZM260.94,70.02h0c.03-.14.08-.3.14-.49.01-.03.03-.07.04-.1.12.45.13.73.19.94.04.14.11.26.2.37h-.45c.02-.06.03-.14.01-.26s-.07-.28-.14-.46h0ZM260.24,68.76h0c.08-.24.17-.5.29-.77.12.21.22.42.31.62-.11.19-.22.38-.31.58-.09-.15-.18-.29-.29-.43h0ZM259.76,70.74h0c.07-.11.13-.23.16-.37.03-.11.04-.25.06-.41.06.2.09.36.13.48v.05c-.01.11,0,.2,0,.26h-.35ZM251.21,70.74h-.49c-.12-.53-.3-1.21-.54-1.84.36.33.62.73.77,1.06.15.33.21.58.26.78h0ZM249.15,68.32h0c.13.04.26.09.38.15.2.48.34.95.42,1.32.1.44.12.73.15.96h-.21s0-.1,0-.18c-.03-.42-.31-1.35-.74-2.25h0ZM259.56,67.85h0s-.04.07-.07.1c.14.11.27.24.4.38.01-.03.03-.07.04-.1.1-.24.21-.47.32-.69l-.02-.03c-.21.07-.43.16-.62.3-.02.01-.03.02-.04.03h-.01ZM261.04,66.29h0c-.15.18-.29.39-.44.62-.03,0-.05,0-.07.01-.03,0-.07-.01-.1-.02l-.03-.04c.22-.22.45-.41.64-.58h0ZM259.23,66.45h0c.15.13.31.27.46.42-.09.1-.18.21-.27.32-.16.1-.31.23-.46.39-.19-.11-.38-.2-.57-.26.26-.32.56-.61.84-.87h0ZM255.97,69.87h0c.18-.45.49-1,.94-1.32.04-.03.09-.06.13-.09-.04.07-.08.15-.11.22-.33.67-.59,1.4-.75,1.96-.06-.25-.13-.51-.21-.78h0ZM254.95,69.7h0v-.04c.06-.22.14-.47.23-.73.08.25.14.49.19.71-.1.2-.18.41-.24.59-.05-.17-.11-.35-.18-.53h0ZM254.02,67.76h0c.16.26.32.54.46.83.06.12.12.25.18.38.04-.1.08-.2.12-.3.06-.14.12-.27.18-.4-.12-.31-.25-.63-.4-.95-.04-.08-.08-.17-.13-.25-.07.1-.13.2-.19.3-.08.13-.15.26-.22.4h0ZM253.34,66.81h0c.13-.32.28-.62.42-.91.15.23.29.48.44.73-.15.21-.3.46-.44.72-.14-.2-.28-.38-.42-.55h0ZM253.22,70.61h0c.03-.24.05-.55.16-1.05.08-.34.2-.76.37-1.2.22.44.38.86.48,1.2.04.15.08.28.1.4-.08.29-.15.55-.19.79h-.88s-.02-.09-.04-.14h0ZM252.62,69.03h0c.09.18.17.36.24.54.1-.32.21-.66.33-.98.09-.24.19-.48.3-.71-.11-.18-.23-.35-.36-.52h0c-.22.57-.38,1.15-.5,1.67h0ZM252.43,70.74h-.08c0-.09.02-.2.03-.32.02.12.03.22.06.32h0ZM251.56,69.47h0c.16.25.29.5.4.73.05-.24.11-.49.17-.74-.2-.56-.55-1.28-1.06-1.88-.2-.24-.43-.46-.65-.65.31.49.62,1.1.88,1.76.1.26.19.52.27.78h-.01ZM278.53,69.21h0v.02l-.02-.08s.02.04.02.06h0ZM277.36,67.5h0v-.03.02s0,0,0,0h0ZM275.68,68.97h0s.02.06.02.09c.05.16.11.29.2.41-.07.17-.13.34-.18.5h-.17c-.01-.07-.03-.14-.04-.21.02-.15.06-.33.11-.54.02-.08.04-.17.07-.26h0ZM276.32,67.41h0c.05.15.09.29.13.43-.05-.13-.1-.26-.15-.39l.02-.04h0ZM277.24,66.23h0v.02h-.01s.01-.01.01-.01h0ZM277.64,65.85h0c.16.31.31.62.43.94l-.03.05c-.06-.05-.12-.1-.18-.15-.08-.27-.17-.54-.26-.8l.04-.03h0ZM279.77,69.21h0s.02-.04.02-.06l-.02.08v-.02h0ZM278.81,67.03h0c.1-.19.21-.39.34-.58.12.19.23.39.34.58-.02.05-.04.09-.05.14-.1.26-.19.53-.28.8-.04-.11-.07-.22-.11-.32.25-.03.24-.04.05-.16-.04-.02-.08-.05-.14-.08-.03-.08-.06-.16-.09-.24-.02-.05-.04-.09-.05-.14h-.01ZM278.06,65.41h0s.06,0,.02.04c.12.23.25.47.37.72.08-.13.17-.25.25-.37-.04-.05-.09-.11-.13-.16-.27-.32-.58-.62-.89-.89.13.2.26.42.38.65h0ZM274.77,66.41h0c.06,0,.12.02.18.03.07.16.14.31.2.46v.03c-.09.08-.16.17-.23.26-.06.04-.12.08-.18.13-.02-.06-.05-.12-.07-.18-.06-.15-.13-.31-.2-.46.1-.09.2-.19.29-.27h.01ZM275.42,65.36h0c.04.07.08.14.12.21-.05,0-.1.02-.16.04-.03-.05-.06-.09-.09-.14.04-.03.08-.07.11-.09h.01v-.02ZM271.79,66.99h0c.28.2.52.48.72.77-.13.06-.26.14-.39.23-.12-.27-.24-.55-.37-.82-.01-.03-.03-.06-.04-.09.03-.03.05-.06.08-.09h0ZM272.45,66.33h0l-.07.06c.3.25.59.58.85.95.02-.03.04-.05.05-.08h0c-.22-.33-.5-.66-.84-.94h.01ZM270.41,66.44h.02c.14.39.25.75.32,1.06.01.05.02.09.03.14-.02.04-.05.09-.07.13-.17-.38-.34-.74-.52-1.07.07-.09.14-.18.21-.26h.01ZM271.14,65.65h0c.28.09.56.19.81.34.05.03.1.06.15.09-.02.01-.05.03-.08.05-.29-.19-.58-.32-.85-.37-.04,0-.08-.01-.12-.02l.03-.03.05-.06h.01ZM270.82,65.57h.02-.02ZM269.53,65.36h0c.08,0,.16.02.26.03.12.16.24.33.34.5-.12.05-.22.11-.31.16-.05-.08-.1-.15-.14-.22-.08-.11-.15-.22-.23-.32.03-.05.05-.1.08-.15h0ZM316.14,70.18h0c.07-.2.11-.51.31-.95.17-.36.46-.81.87-1.15.01.01.03.02.04.03.21.15.38.35.53.56-.37.8-.63,1.62-.7,2.07h-.92c-.03-.23-.09-.42-.15-.56h.02ZM314.97,69.97h.26c.15-.49.54-1.26,1.05-1.84.11-.13.23-.24.34-.35-.27-.08-.52-.11-.69-.13-.07,0-.13-.02-.17-.02-.02.03-.04.07-.06.1.2.06.37.14.48.19.17.08.12.13-.15.16-.14.01-.33.03-.55.07-.13.28-.23.55-.3.78-.16.5-.18.81-.22,1.04h0ZM313.93,69.97h0c.01-.06.02-.12.04-.18.08-.37.22-.84.42-1.32.12-.06.25-.11.38-.15-.28.59-.5,1.19-.62,1.65h-.22ZM315.67,65.93h0c-.15.09-.31.23-.49.41-.31.34-.65.85-.97,1.47-.3.13-.61.32-.91.56l.02-.05c.23-.63.68-1.46,1.33-1.93.31-.23.68-.37,1.02-.46h0ZM316.68,65.74h-.09c-.08.02-.18.03-.28.05-.04.04-.08.08-.14.14-.3.31-.91.92-1.35,1.65-.01.02-.02.04-.03.06h0c.12-.02.23-.02.34-.02.47-.8,1.03-1.47,1.55-1.88h0ZM312.01,69.97h-.1c-.04-.17-.08-.34-.12-.51.15-.42.38-.93.71-1.41-.27.62-.45,1.21-.5,1.58-.02.15-.01.27.01.35h0ZM312.67,66.03h0c-.28.61-.49,1.22-.62,1.72.42-.59.87-1.08,1.29-1.38.12-.09.24-.16.35-.22.13-.14.27-.27.4-.38-.37.04-.89.11-1.42.26h0ZM310.01,66.15h0c.05-.09.1-.17.16-.25l.02.04c-.06.07-.12.14-.17.22h0ZM307.95,69.87h0s-.02.07-.03.11h-.08s.07-.07.1-.1h0ZM309.01,66.44h0c.07.08.14.17.21.26-.18.33-.35.69-.52,1.07-.02-.04-.05-.09-.07-.13.01-.04.02-.09.03-.14.08-.31.18-.67.32-1.06h.03ZM309.29,65.89h0c.11-.17.22-.34.34-.5.09-.01.18-.02.26-.03.03.05.05.1.08.15-.07.1-.15.2-.23.32-.05.07-.09.14-.14.22-.09-.05-.19-.11-.31-.16h0ZM308.6,65.57h-.01.02s0,0,0,0ZM307.39,66.13h0s-.05-.03-.08-.05c.05-.03.1-.06.15-.09.25-.14.53-.25.82-.34l.05.06.03.03s-.08.01-.12.02c-.27.05-.56.18-.85.37h0ZM306.19,67.34h0c.26-.38.56-.7.85-.95l-.07-.06c-.34.28-.62.61-.84.94h0s.04.06.05.08h.01ZM301.35,66.79h0c.12-.31.27-.63.43-.94l.04.03c-.09.26-.18.53-.26.8-.06.05-.12.1-.18.15l-.03-.05h0ZM300.72,65.82h0c.09.12.17.24.25.37.12-.25.24-.49.37-.72-.03-.04-.02-.05.02-.04.13-.23.25-.45.38-.65-.31.27-.62.57-.89.89-.05.05-.09.11-.13.16h0ZM299.18,64.14h0c.35.28.73.65,1.09,1.09.36-.44.74-.81,1.09-1.09-.41-.38-.8-.69-1.09-.92-.29.23-.68.54-1.09.92h0ZM298.99,66.68h0c.06.05.12.1.18.15l.03-.05c-.16-.39-.34-.79-.56-1.17.12.34.24.7.35,1.07h0ZM297.73,65.8h0c.1-.15.2-.3.32-.44v-.02c.13.31.23.61.33.91-.18-.11-.37-.2-.55-.28-.03-.06-.06-.12-.09-.17h-.01ZM296.7,64.2h0c.12-.21.24-.41.37-.61.15.15.31.33.49.53.07.16.14.32.22.49-.14.17-.28.34-.41.53-.22-.36-.44-.68-.66-.94h0ZM296.2,65.12h0c.13.19.26.39.38.6h.17c-.06-.12-.13-.24-.2-.36-.08-.14-.17-.27-.26-.41-.03.06-.06.11-.08.17h-.01ZM287.97,64.77h0s-.07,0-.1-.01c-.2-.32-.4-.6-.6-.84.25.2.52.44.79.7-.03.05-.06.1-.09.15h0ZM286.62,65.92h0s-.04-.03-.05-.05c.05-.02.11-.05.16-.07.04,0,.09.01.13.02-.08.03-.16.06-.24.1h0ZM284.84,67.53h0s.02.07.04.1c.05-.08.09-.15.14-.22.27-.4.57-.74.88-1h-.02s-.04-.04-.06-.06c-.42.35-.74.78-.98,1.18h0ZM286.5,64.02h0c.21.22.42.47.62.74h-.01c-.44.07-.92.26-1.39.54-.11-.05-.21-.09-.32-.11.37-.47.77-.87,1.1-1.17h0ZM284.15,65.78h0s.08.01.12.02c-.02.04-.04.08-.06.11-.02-.04-.04-.09-.06-.13h0ZM283.95,65.35h0l.03.07c.18-.1.4-.21.67-.26.31-.47.63-.87.93-1.15.18-.17.36-.3.53-.4-.09-.09-.18-.17-.26-.24-.46.35-.96.79-1.38,1.28-.19.22-.36.46-.52.69h0ZM280.23,66.79h0c.16-.39.34-.79.56-1.17-.12.34-.24.7-.35,1.07-.06.05-.12.1-.18.15l-.03-.05h0ZM279.6,65.82h0c.09.12.17.24.25.37.25-.52.51-1,.77-1.42-.31.27-.62.57-.89.89-.05.05-.09.11-.13.16h0ZM278.06,64.14h0c.41-.38.8-.69,1.09-.92.29.23.68.54,1.09.92-.35.28-.73.65-1.09,1.09-.36-.44-.74-.81-1.09-1.09h0ZM276.61,65.8h0c.1-.15.2-.3.32-.44l.02-.02c.04.12.09.23.13.35-.12.02-.27.06-.45.12h-.02ZM275.57,64.2h0c.12-.21.24-.41.37-.61.15.15.31.33.49.53.07.16.15.32.22.49-.14.17-.28.34-.41.53-.22-.36-.44-.68-.66-.94h0ZM275.07,65.12h0c.03-.05.06-.11.08-.17.05.07.09.13.13.2-.05.01-.11.02-.16.04-.02-.03-.04-.05-.05-.08h0ZM268.11,67.8h0c-.13-.42-.29-.84-.46-1.25-.03-.07-.06-.13-.08-.2.03.01.05.03.08.04.07.04.14.08.2.12.18.17.36.35.53.54-.09.24-.18.48-.27.74h0ZM265.73,66.15h0c-.13-.14-.27-.27-.4-.38.37.04.89.11,1.42.26.28.61.49,1.22.62,1.72-.42-.59-.87-1.08-1.29-1.38-.12-.09-.24-.16-.35-.22h0ZM263.75,65.93h0c.15.09.31.23.48.41.31.34.66.85.97,1.47.3.13.61.32.91.56l-.02-.05c-.23-.63-.68-1.46-1.33-1.93-.31-.23-.68-.37-1.02-.46h0ZM262.74,65.74h.09c.08.02.18.03.28.05.04.04.08.08.14.14.3.31.91.92,1.35,1.65.01.02.02.04.03.06h0c-.12-.02-.23-.02-.34-.02-.47-.8-1.03-1.47-1.55-1.88h0ZM241.86,70.74h0c-.21,0-.38.48-.38,1.06s.17,1.06.38,1.06h95.69c.21,0,.38-.48.38-1.06s-.17-1.06-.38-1.06h-2.96c.08-.05.14-.12.19-.23.09-.2.11-.52.33-.99.22-.46.64-1.07,1.25-1.42.61-.34,1.42-.43,1.83-.47.27-.03.32-.08.15-.16-.26-.12-.77-.37-1.41-.27-.63.1-1.38.53-1.98,1.21s-1.03,1.61-1.1,2.06c-.02.11-.01.2.01.26h-.45c.09-.11.16-.23.2-.37.07-.25.07-.57.25-1.15.16-.51.47-1.22.94-1.85.09-.01.17-.02.24-.03.27-.03.32-.08.15-.16-.25-.12-.1-.05-.17-.08.57-.67,1.35-1.19,1.73-1.45.26-.18.3-.26.13-.24-.26.02-.79.07-1.4.52-.32.23-.67.58-1.01,1-.21-.04-.45-.06-.7-.02-.63.1-1.38.53-1.98,1.21-.59.68-1.03,1.61-1.1,2.06s.23.42.46.37c.23-.05.39-.14.47-.34.09-.2.11-.52.33-.99.22-.46.64-1.07,1.25-1.42.26-.15.57-.25.85-.32-.15.23-.3.47-.43.73-.49.92-.84,1.98-.92,2.51h-2.78s.06-.05.09-.07c.22-.18.37-.35.44-.59.07-.25.07-.57.25-1.15.07-.23.17-.5.3-.78.22-.03.41-.05.55-.07.27-.03.32-.08.15-.16-.11-.05-.28-.13-.48-.19.17-.3.37-.6.6-.88.58-.68,1.36-1.21,1.76-1.48.26-.17.3-.25.13-.24-.26.02-.79.07-1.4.52-.55.4-1.17,1.12-1.68,1.98-.11,0-.23,0-.34.02h0s.02-.04.03-.06c.44-.74,1.05-1.35,1.35-1.65.2-.21.23-.29.1-.26-.2.05-.61.15-1.08.66-.31.34-.65.85-.97,1.47-.35.15-.71.38-1.04.68.13-.34.3-.7.49-1.03.44-.74,1.05-1.35,1.35-1.65.2-.21.23-.29.1-.26-.15.04-.43.11-.76.36-.28.06-.63.18-1.03.47-.59.43-1.27,1.23-1.79,2.18-.16-.53-.33-1.04-.51-1.5.53-.6,1.15-1.09,1.49-1.35.26-.21.3-.29.13-.26-.26.05-.78.15-1.39.66-.14.12-.29.26-.44.42-.11-.26-.22-.5-.33-.71-.04-.08-.09-.16-.13-.24.23-.35.44-.65.59-.86.24-.35.28-.45.11-.32-.19.14-.51.39-.89.85-.3-.46-.55-.71-.69-.85-.13-.13-.11-.02.08.32.11.2.25.47.41.78-.07.1-.15.2-.23.32-.09.14-.19.29-.28.45-.05-.06-.1-.12-.15-.17-.47-.51-.88-.61-1.08-.66-.13-.03-.1.05.1.26.21.21.55.56.89.99-.18.33-.35.69-.52,1.07-.33-.6-.68-1.09-1.01-1.39-.48-.45-.88-.49-1.09-.52-.13-.01-.1.07.1.24.31.27.92.8,1.37,1.48.15.23.29.48.4.73-.09.24-.18.48-.27.72-.03-.06-.07-.11-.11-.16-.4-.6-.9-1.01-1.35-1.16.16-.02.31-.04.42-.05.27-.03.32-.08.15-.16-.23-.11-.68-.32-1.24-.29-.25-.48-.53-.91-.79-1.23.17-.12.32-.22.44-.3.26-.18.3-.26.13-.24-.18.02-.5.04-.88.21-.47-.44-.88-.49-1.08-.51-.13-.01-.1.07.1.24.11.09.25.22.42.37-.28-.12-.51-.17-.65-.19-.17-.03-.13.05.13.26.1.08.23.18.37.29-.14.11-.28.25-.41.39-.06-.05-.11-.1-.17-.15-.61-.51-1.13-.61-1.39-.66-.05,0-.09-.02-.12-.02h-.01c.16-.12.3-.22.41-.29.26-.17.3-.25.13-.24-.22.02-.61.05-1.09.32-.06-.01-.12-.02-.16-.02-.17-.02-.2-.02-.02.13-.03.02-.05.03-.08.05-.03-.02-.07-.04-.12-.07-.27-.17-.82-.5-1.49-.37-.26.05-.54.17-.83.36-.21-.1-.53-.25-.93-.33-.03-.02-.06-.04-.1-.06-.05-.03-.11-.07-.18-.11.61-.91,1.43-1.62,1.84-1.97.28-.24.33-.35.14-.33-.2.02-.56.06-.98.32-.04,0-.09.02-.16.03-.36.07-1.07.21-1.9.9-.35.29-.73.69-1.09,1.16-.22.15-.44.33-.66.55-.02-.03-.03-.06-.05-.09.23-.35.44-.65.59-.86.24-.35.28-.45.11-.32-.17.13-.47.36-.82.77-.03-.01-.05-.03-.09-.04-.03-.02-.07-.03-.11-.05-.03-.04-.05-.07-.08-.1.78-.88,1.8-1.57,2.32-1.92.36-.24.42-.35.18-.33s-.63.06-1.12.26c.14-.13.27-.24.37-.33.28-.24.33-.35.14-.33-.28.03-.83.1-1.48.7-.33.3-.67.75-1.01,1.28t-.02.03c-.09.14-.17.28-.26.43-.26-.04-.55-.06-.86,0-.7.11-1.51.52-2.22,1.17.05-.09.11-.18.17-.27.61-.93,1.44-1.65,1.86-2.01.28-.24.33-.35.14-.33-.28.03-.83.1-1.48.7-.44.41-.93,1.08-1.37,1.9-.08-.19-.17-.38-.26-.56.16-.24.33-.47.52-.69.79-.93,1.86-1.65,2.4-2.01.36-.24.42-.35.18-.33-.36.03-1.07.1-1.91.7-.5.36-1.04.92-1.55,1.59-.03-.05-.05-.1-.08-.16.46-.59.93-1.07,1.22-1.35.27-.28.32-.4.14-.35-.22.05-.62.15-1.11.55-.19.1-.4.25-.63.46-.11-.18-.21-.35-.32-.5-.02-.03-.04-.05-.05-.08.36-.37.35-.36.09-.3-.07.02-.15.04-.25.07-.03-.04-.06-.08-.09-.12.22-.43.42-.8.56-1.06.25-.47.29-.61.11-.44-.2.2-.54.54-.95,1.16-.52-.63-.96-.97-1.22-1.16-.23-.18-.18-.03.15.44.2.29.49.7.8,1.18-.06.1-.12.21-.18.32-.02.04-.04.09-.07.13-.25.06-.55.16-.88.34-.03-.03-.07-.06-.1-.08-.46-.38-.88-.6-1.23-.72.3-.24.26-.23-.04-.18-.09.02-.19.04-.31.07-.12-.03-.23-.05-.31-.07-.3-.06-.35-.07-.04.18-.35.13-.77.34-1.23.72-.03.03-.07.05-.1.08-.33-.18-.63-.28-.88-.34-.02-.05-.05-.09-.07-.13-.06-.11-.12-.22-.17-.32.31-.48.6-.89.8-1.18.33-.47.38-.61.15-.44-.25.2-.7.54-1.22,1.16-.41-.63-.75-.97-.95-1.16-.18-.18-.14-.03.11.44.14.27.34.63.56,1.06-.03.04-.06.08-.09.12-.1-.03-.18-.05-.25-.07-.27-.07-.28-.07.09.3-.02.03-.04.05-.05.08-.1.16-.21.33-.32.5-.23-.21-.44-.36-.63-.46-.48-.4-.89-.5-1.11-.55-.19-.05-.14.07.14.35s.75.76,1.22,1.35c-.03.05-.05.1-.08.16-.51-.68-1.05-1.23-1.55-1.59-.06-.04-.12-.08-.17-.12.24-.21.2-.21-.03-.18-.06,0-.13.02-.22.03-.65-.36-1.19-.41-1.48-.43-.24-.02-.18.09.18.33.15.1.34.23.56.38h-.02s-.09.03-.16.04c-.36.07-1.07.21-1.9.9-.02.02-.04.03-.06.05-.14-.2-.28-.39-.42-.56.23-.17.44-.3.6-.41.36-.24.42-.35.18-.33-.24.02-.63.06-1.12.26.14-.13.27-.24.37-.33.28-.24.33-.35.14-.33-.21.02-.58.07-1.03.35-.45-.28-.82-.33-1.03-.35-.19-.02-.14.09.14.33.1.09.23.2.37.33-.49-.2-.88-.24-1.12-.26s-.18.09.18.33c.16.11.36.25.6.41-.14.17-.28.35-.42.56-.02-.02-.04-.03-.05-.05-.83-.69-1.54-.83-1.9-.9-.06,0-.12-.02-.16-.03h-.02c.22-.17.41-.3.56-.4.36-.24.42-.35.18-.33-.29.03-.83.07-1.48.43-.09-.02-.16-.02-.22-.03-.23-.03-.27-.03-.03.18-.06.04-.12.08-.17.12-.5.36-1.04.92-1.55,1.59-.03-.05-.05-.1-.08-.16.46-.59.93-1.07,1.22-1.35.27-.28.32-.4.14-.35-.22.05-.62.15-1.11.55-.19.1-.4.25-.63.46-.11-.18-.21-.35-.32-.5-.02-.03-.04-.05-.05-.08.36-.37.35-.36.09-.3-.07.02-.15.04-.25.07-.03-.04-.06-.08-.09-.12.22-.43.42-.8.56-1.06.25-.47.29-.61.11-.44-.2.2-.54.54-.95,1.16-.52-.63-.96-.97-1.22-1.16-.23-.18-.18-.03.15.44.2.29.49.7.8,1.18-.06.1-.12.21-.17.32-.02.04-.04.09-.07.13-.25.06-.55.16-.88.34-.03-.03-.06-.06-.1-.08-.46-.38-.88-.6-1.23-.72.3-.24.26-.23-.04-.18-.08.02-.19.04-.31.07-.12-.03-.23-.05-.31-.07-.3-.06-.35-.07-.04.18-.35.13-.77.34-1.23.72-.03.03-.06.05-.1.08-.33-.18-.63-.28-.88-.34-.02-.05-.05-.09-.07-.13-.06-.11-.12-.22-.17-.32.31-.48.6-.89.8-1.18.33-.47.38-.61.15-.44-.25.2-.7.54-1.22,1.16-.41-.63-.75-.97-.95-1.16-.18-.18-.14-.03.11.44.14.27.34.63.56,1.06-.03.04-.06.08-.09.12-.1-.03-.18-.05-.25-.07-.27-.07-.28-.07.09.3-.02.03-.04.05-.05.08-.1.16-.21.33-.32.5-.23-.21-.44-.36-.63-.46-.48-.4-.88-.5-1.11-.55-.19-.05-.14.07.14.35.28.28.75.76,1.21,1.35-.03.05-.05.1-.08.16-.51-.68-1.05-1.23-1.55-1.59-.84-.61-1.55-.67-1.91-.7-.24-.02-.18.09.18.33.54.36,1.61,1.08,2.4,2.01.19.22.36.46.52.69-.09.18-.17.37-.26.56-.44-.82-.93-1.48-1.38-1.9-.65-.61-1.2-.67-1.48-.7-.19-.02-.14.09.14.33.42.36,1.25,1.08,1.86,2.01.06.09.11.18.17.27-.71-.65-1.52-1.06-2.22-1.17-.31-.05-.6-.03-.86,0-.08-.15-.17-.29-.26-.43.03-.06.02-.06-.02-.03-.34-.54-.69-.98-1.01-1.28-.65-.61-1.2-.67-1.48-.7-.19-.02-.14.09.14.33.1.09.23.2.37.33-.49-.2-.88-.24-1.12-.26-.24-.02-.18.09.18.33.52.35,1.54,1.04,2.32,1.92-.02.03-.05.07-.08.1-.04.02-.08.04-.11.05s-.06.03-.09.04c-.35-.4-.65-.63-.82-.77-.17-.13-.13-.02.11.32.15.21.36.51.59.86-.02.03-.03.06-.05.09-.21-.22-.44-.4-.66-.55-.37-.47-.74-.86-1.09-1.16-.83-.69-1.54-.83-1.9-.9-.07,0-.12-.02-.16-.03-.43-.26-.78-.3-.98-.32-.19-.02-.14.09.14.33.41.36,1.23,1.07,1.84,1.97-.07.04-.13.08-.18.11-.04.02-.07.04-.1.06-.4.08-.72.23-.93.33-.28-.19-.56-.31-.83-.36-.67-.13-1.22.2-1.49.37-.05.03-.09.05-.12.07-.03-.02-.05-.03-.08-.05.18-.16.15-.15-.02-.13-.04,0-.1.01-.16.02-.48-.26-.87-.3-1.09-.32-.17-.01-.13.07.13.24.11.07.25.17.41.28h-.01s-.07.02-.12.03c-.26.05-.78.15-1.39.66-.05.05-.11.09-.17.15-.14-.15-.28-.28-.41-.39.14-.12.27-.21.37-.29.26-.21.3-.29.13-.26-.15.03-.37.07-.65.19.16-.15.31-.28.42-.37.21-.17.24-.25.1-.24-.2.02-.61.07-1.08.51-.38-.17-.69-.2-.88-.21-.17-.01-.13.07.13.24.12.08.27.18.44.3-.27.32-.54.74-.79,1.23-.55-.03-1,.18-1.24.29-.17.08-.12.13.15.16.11.01.26.03.42.05-.45.16-.94.57-1.35,1.16-.04.05-.07.11-.11.16-.08-.24-.17-.48-.27-.72.11-.25.25-.5.4-.73.45-.68,1.06-1.21,1.37-1.48.21-.18.24-.26.1-.24-.2.02-.61.07-1.09.52-.33.3-.68.79-1.01,1.39-.16-.38-.34-.74-.51-1.07.34-.43.69-.78.89-.99.2-.21.23-.29.1-.26-.2.05-.61.15-1.08.66-.05.05-.1.11-.15.17-.09-.16-.19-.31-.28-.45-.08-.11-.15-.22-.23-.32.16-.32.31-.59.41-.78.19-.35.21-.45.08-.32-.14.14-.4.39-.69.85-.38-.46-.71-.71-.9-.85-.17-.13-.13-.02.11.32.15.21.36.51.59.86-.04.07-.08.15-.13.24-.11.21-.22.45-.33.71-.15-.16-.29-.3-.44-.42-.61-.51-1.13-.61-1.39-.66-.17-.03-.13.05.13.26.33.26.96.75,1.49,1.35-.18.46-.35.97-.51,1.5-.53-.95-1.2-1.75-1.79-2.18-.4-.29-.75-.41-1.03-.47-.33-.25-.6-.32-.76-.36-.13-.03-.1.05.1.26.3.31.91.92,1.35,1.65.2.33.36.68.49,1.03-.33-.3-.69-.53-1.04-.68-.31-.62-.65-1.13-.97-1.47-.47-.51-.88-.61-1.08-.66-.13-.03-.1.05.1.26.3.31.91.92,1.35,1.65,0,.02.02.04.03.06h0c-.12-.02-.23-.02-.34-.02-.51-.86-1.13-1.58-1.68-1.98-.61-.45-1.14-.49-1.4-.52-.17-.01-.13.07.13.24.39.27,1.18.8,1.76,1.48.24.28.44.58.61.88-.2.06-.37.14-.48.19-.17.08-.12.13.15.16.14.01.34.03.55.07.13.28.23.55.3.78.18.58.18.9.25,1.15s.22.41.44.59c.03.02.06.05.09.07h-2.78c-.08-.53-.43-1.59-.92-2.51-.14-.25-.28-.5-.43-.73.29.07.59.17.85.32.61.34,1.03.95,1.25,1.42.22.46.24.78.33.99.09.2.25.28.47.34.23.05.53.08.46-.37-.07-.45-.51-1.38-1.1-2.06-.6-.68-1.35-1.12-1.98-1.21-.26-.04-.49-.02-.7.02-.34-.42-.68-.76-1.01-1-.61-.45-1.14-.49-1.4-.52-.17-.01-.13.07.13.24.39.26,1.16.78,1.73,1.45-.06.03-.12.05-.17.08-.17.08-.12.13.15.16.07,0,.15.02.24.03.47.63.78,1.33.94,1.85.18.58.18.9.25,1.15.04.14.11.26.2.37h-.45c.02-.06.03-.14,0-.26-.07-.45-.51-1.38-1.1-2.06-.6-.68-1.35-1.12-1.98-1.21-.63-.1-1.15.15-1.41.27-.17.08-.12.13.15.16.4.04,1.21.12,1.83.47.61.34,1.03.95,1.25,1.42.22.46.24.78.33.99.04.1.11.17.19.23h-2.96.04ZM258.46,70.74h0c.03-.22.06-.52.19-.96.1-.34.26-.78.49-1.22.18.18.33.38.46.58-.2.64-.34,1.24-.38,1.6h-.76,0ZM257.36,70.74h-.31s.05-.05.07-.07c.17-.18.29-.35.34-.59.06-.25.05-.57.19-1.15.06-.23.13-.5.24-.78.17-.03.32-.05.43-.07.06,0,.1-.01.14-.02.02.01.04.02.07.03l-.02.03c-.46.68-.8,1.61-.86,2.06-.02.2.01.31.07.36-.02.07-.04.13-.06.19h-.3ZM287.34,68.72h0c.03.09.05.18.07.27-.1.25-.16.46-.19.63-.02.15-.01.27.02.35h-.51s.07-.07.1-.1c.23-.25.39-.47.46-.81.02-.1.04-.21.05-.34h0ZM288.72,66.39h0l-.02-.04.03.02-.02.02h0ZM287.95,67.83h0c-.1-.21-.21-.42-.33-.62.07-.24.15-.5.25-.77.06-.01.12-.02.17-.03.1.23.18.46.26.69-.13.25-.24.5-.35.74h0ZM290.71,66.39h0l-.02-.02.03-.02-.02.04h0ZM291.47,67.83h0c-.1-.24-.22-.49-.35-.74.07-.22.16-.45.26-.69.05,0,.11.02.17.03.1.27.18.53.25.77-.12.2-.23.41-.33.62h0ZM292.28,69.97h-.09c.03-.08.04-.19.02-.35-.03-.17-.09-.39-.18-.63.02-.08.04-.17.07-.27.02.13.03.24.05.34.08.34.23.56.46.81.03.03.06.07.1.1h-.43Z"/>
      </g>
    </g>
  </g>
</svg>