<svg width="21" height="21" viewBox="0 0 21 21" fill="none" xmlns="http://www.w3.org/2000/svg">
<path d="M18.7314 10.3346C18.7314 8.10761 17.8468 5.97183 16.272 4.39712C14.6973 2.8224 12.5616 1.93774 10.3346 1.93774C8.10761 1.93774 5.97183 2.8224 4.39712 4.39712C2.8224 5.97183 1.93774 8.10761 1.93774 10.3346C1.93774 12.5616 2.8224 14.6973 4.39712 16.272C5.97183 17.8468 8.10761 18.7314 10.3346 18.7314C12.5616 18.7314 14.6973 17.8468 16.272 16.272C17.8468 14.6973 18.7314 12.5616 18.7314 10.3346ZM0 10.3346C0 7.59369 1.08882 4.96505 3.02693 3.02693C4.96505 1.08882 7.59369 0 10.3346 0C13.0755 0 15.7041 1.08882 17.6423 3.02693C19.5803 4.96505 20.6692 7.59369 20.6692 10.3346C20.6692 13.0755 19.5803 15.7041 17.6423 17.6423C15.7041 19.5803 13.0755 20.6692 10.3346 20.6692C7.59369 20.6692 4.96505 19.5803 3.02693 17.6423C1.08882 15.7041 0 13.0755 0 10.3346ZM10.3346 6.45912C11.3625 6.45912 12.3482 6.86743 13.075 7.59422C13.8017 8.32101 14.2101 9.30675 14.2101 10.3346C14.2101 11.3625 13.8017 12.3482 13.075 13.075C12.3482 13.8017 11.3625 14.2101 10.3346 14.2101C9.30675 14.2101 8.32101 13.8017 7.59422 13.075C6.86743 12.3482 6.45912 11.3625 6.45912 10.3346C6.45912 9.30675 6.86743 8.32101 7.59422 7.59422C8.32101 6.86743 9.30675 6.45912 10.3346 6.45912Z" fill="#8C101C"/>
</svg>
